<svg xmlns="http://www.w3.org/2000/svg" viewBox="0 0 256 256">
  <defs>
    <linearGradient id="g" x1="0" y1="0" x2="1" y2="1">
      <stop offset="0" stop-color="#f59e0b"/>
      <stop offset="0.5" stop-color="#f97316"/>
      <stop offset="1" stop-color="#ec4899"/>
    </linearGradient>
  </defs>
  <rect width="256" height="256" rx="56" fill="url(#g)"/>
  <g fill="#0a0a0a">
    <path d="M64 70h58c22 0 36 12 36 30c0 12-6 22-17 26c13 3 21 13 21 27c0 20-15 33-40 33H64V70zm32 28v25h23c9 0 14-5 14-12c0-8-6-13-15-13H96zm0 49v29h27c11 0 16-6 16-14c0-9-6-15-17-15H96z"/>
  </g>
</svg>
